<mxfile host="Electron" agent="Mozilla/5.0 (Windows NT 10.0; Win64; x64) AppleWebKit/537.36 (KHTML, like Gecko) draw.io/26.1.1 Chrome/132.0.6834.210 Electron/34.3.3 Safari/537.36" version="26.1.1">
  <diagram name="Page-1" id="v_Uuj5DD5LvkFWN-_i6H">
    <mxGraphModel dx="383" dy="727" grid="1" gridSize="10" guides="1" tooltips="1" connect="1" arrows="1" fold="1" page="1" pageScale="1" pageWidth="850" pageHeight="1100" math="0" shadow="0">
      <root>
        <mxCell id="0" />
        <mxCell id="1" parent="0" />
        <mxCell id="dSd74z64RQHbui0JVuST-33" value="" style="rounded=0;whiteSpace=wrap;html=1;fillColor=none;strokeColor=#9673a6;strokeWidth=2;" vertex="1" parent="1">
          <mxGeometry x="460" y="65" width="370" height="365" as="geometry" />
        </mxCell>
        <mxCell id="dSd74z64RQHbui0JVuST-32" value="" style="rounded=0;whiteSpace=wrap;html=1;fillColor=none;strokeColor=#6c8ebf;strokeWidth=2;" vertex="1" parent="1">
          <mxGeometry x="55" y="65" width="400" height="365" as="geometry" />
        </mxCell>
        <mxCell id="dSd74z64RQHbui0JVuST-1" value="crm_sales_details" style="swimlane;fontStyle=0;childLayout=stackLayout;horizontal=1;startSize=30;horizontalStack=0;resizeParent=1;resizeParentMax=0;resizeLast=0;collapsible=1;marginBottom=0;whiteSpace=wrap;html=1;fillColor=#dae8fc;strokeColor=#6c8ebf;" vertex="1" parent="1">
          <mxGeometry x="75" y="190" width="140" height="90" as="geometry" />
        </mxCell>
        <mxCell id="dSd74z64RQHbui0JVuST-2" value="prd_key" style="text;strokeColor=none;fillColor=none;align=left;verticalAlign=middle;spacingLeft=4;spacingRight=4;overflow=hidden;points=[[0,0.5],[1,0.5]];portConstraint=eastwest;rotatable=0;whiteSpace=wrap;html=1;" vertex="1" parent="dSd74z64RQHbui0JVuST-1">
          <mxGeometry y="30" width="140" height="30" as="geometry" />
        </mxCell>
        <mxCell id="dSd74z64RQHbui0JVuST-3" value="cst_id" style="text;strokeColor=none;fillColor=none;align=left;verticalAlign=middle;spacingLeft=4;spacingRight=4;overflow=hidden;points=[[0,0.5],[1,0.5]];portConstraint=eastwest;rotatable=0;whiteSpace=wrap;html=1;" vertex="1" parent="dSd74z64RQHbui0JVuST-1">
          <mxGeometry y="60" width="140" height="30" as="geometry" />
        </mxCell>
        <mxCell id="dSd74z64RQHbui0JVuST-9" value="crm_pred_info" style="swimlane;fontStyle=0;childLayout=stackLayout;horizontal=1;startSize=30;horizontalStack=0;resizeParent=1;resizeParentMax=0;resizeLast=0;collapsible=1;marginBottom=0;whiteSpace=wrap;html=1;fillColor=#dae8fc;strokeColor=#6c8ebf;" vertex="1" parent="1">
          <mxGeometry x="295" y="120" width="140" height="60" as="geometry" />
        </mxCell>
        <mxCell id="dSd74z64RQHbui0JVuST-10" value="prd_key" style="text;strokeColor=none;fillColor=none;align=left;verticalAlign=middle;spacingLeft=4;spacingRight=4;overflow=hidden;points=[[0,0.5],[1,0.5]];portConstraint=eastwest;rotatable=0;whiteSpace=wrap;html=1;" vertex="1" parent="dSd74z64RQHbui0JVuST-9">
          <mxGeometry y="30" width="140" height="30" as="geometry" />
        </mxCell>
        <mxCell id="dSd74z64RQHbui0JVuST-12" value="crm_cust_info" style="swimlane;fontStyle=0;childLayout=stackLayout;horizontal=1;startSize=30;horizontalStack=0;resizeParent=1;resizeParentMax=0;resizeLast=0;collapsible=1;marginBottom=0;whiteSpace=wrap;html=1;fillColor=#dae8fc;strokeColor=#6c8ebf;" vertex="1" parent="1">
          <mxGeometry x="295" y="300" width="140" height="90" as="geometry" />
        </mxCell>
        <mxCell id="dSd74z64RQHbui0JVuST-14" value="cst_id" style="text;strokeColor=none;fillColor=none;align=left;verticalAlign=middle;spacingLeft=4;spacingRight=4;overflow=hidden;points=[[0,0.5],[1,0.5]];portConstraint=eastwest;rotatable=0;whiteSpace=wrap;html=1;" vertex="1" parent="dSd74z64RQHbui0JVuST-12">
          <mxGeometry y="30" width="140" height="30" as="geometry" />
        </mxCell>
        <mxCell id="dSd74z64RQHbui0JVuST-25" value="cst_key" style="text;strokeColor=none;fillColor=none;align=left;verticalAlign=middle;spacingLeft=4;spacingRight=4;overflow=hidden;points=[[0,0.5],[1,0.5]];portConstraint=eastwest;rotatable=0;whiteSpace=wrap;html=1;" vertex="1" parent="dSd74z64RQHbui0JVuST-12">
          <mxGeometry y="60" width="140" height="30" as="geometry" />
        </mxCell>
        <mxCell id="dSd74z64RQHbui0JVuST-15" value="erp_px_cat_g1v2" style="swimlane;fontStyle=0;childLayout=stackLayout;horizontal=1;startSize=30;horizontalStack=0;resizeParent=1;resizeParentMax=0;resizeLast=0;collapsible=1;marginBottom=0;whiteSpace=wrap;html=1;fillColor=#e1d5e7;strokeColor=#9673a6;" vertex="1" parent="1">
          <mxGeometry x="590" y="107.5" width="140" height="60" as="geometry" />
        </mxCell>
        <mxCell id="dSd74z64RQHbui0JVuST-16" value="id" style="text;strokeColor=none;fillColor=none;align=left;verticalAlign=middle;spacingLeft=4;spacingRight=4;overflow=hidden;points=[[0,0.5],[1,0.5]];portConstraint=eastwest;rotatable=0;whiteSpace=wrap;html=1;" vertex="1" parent="dSd74z64RQHbui0JVuST-15">
          <mxGeometry y="30" width="140" height="30" as="geometry" />
        </mxCell>
        <mxCell id="dSd74z64RQHbui0JVuST-18" value="erp_cust_az12" style="swimlane;fontStyle=0;childLayout=stackLayout;horizontal=1;startSize=30;horizontalStack=0;resizeParent=1;resizeParentMax=0;resizeLast=0;collapsible=1;marginBottom=0;whiteSpace=wrap;html=1;fillColor=#e1d5e7;strokeColor=#9673a6;" vertex="1" parent="1">
          <mxGeometry x="590" y="227.5" width="140" height="60" as="geometry" />
        </mxCell>
        <mxCell id="dSd74z64RQHbui0JVuST-19" value="cid" style="text;strokeColor=none;fillColor=none;align=left;verticalAlign=middle;spacingLeft=4;spacingRight=4;overflow=hidden;points=[[0,0.5],[1,0.5]];portConstraint=eastwest;rotatable=0;whiteSpace=wrap;html=1;" vertex="1" parent="dSd74z64RQHbui0JVuST-18">
          <mxGeometry y="30" width="140" height="30" as="geometry" />
        </mxCell>
        <mxCell id="dSd74z64RQHbui0JVuST-21" value="erp_loc_a101" style="swimlane;fontStyle=0;childLayout=stackLayout;horizontal=1;startSize=30;horizontalStack=0;resizeParent=1;resizeParentMax=0;resizeLast=0;collapsible=1;marginBottom=0;whiteSpace=wrap;html=1;fillColor=#e1d5e7;strokeColor=#9673a6;" vertex="1" parent="1">
          <mxGeometry x="590" y="347.5" width="140" height="60" as="geometry" />
        </mxCell>
        <mxCell id="dSd74z64RQHbui0JVuST-22" value="cid" style="text;strokeColor=none;fillColor=none;align=left;verticalAlign=middle;spacingLeft=4;spacingRight=4;overflow=hidden;points=[[0,0.5],[1,0.5]];portConstraint=eastwest;rotatable=0;whiteSpace=wrap;html=1;" vertex="1" parent="dSd74z64RQHbui0JVuST-21">
          <mxGeometry y="30" width="140" height="30" as="geometry" />
        </mxCell>
        <mxCell id="dSd74z64RQHbui0JVuST-26" value="&lt;p&gt;transactional records about&lt;br&gt; sales and orders&lt;/p&gt;" style="text;html=1;align=center;verticalAlign=middle;resizable=0;points=[];autosize=1;strokeColor=none;fillColor=none;" vertex="1" parent="1">
          <mxGeometry x="60" y="135" width="170" height="70" as="geometry" />
        </mxCell>
        <mxCell id="dSd74z64RQHbui0JVuST-27" value="current &amp;amp; history product info" style="text;html=1;align=center;verticalAlign=middle;resizable=0;points=[];autosize=1;strokeColor=none;fillColor=none;" vertex="1" parent="1">
          <mxGeometry x="275" y="90" width="180" height="30" as="geometry" />
        </mxCell>
        <mxCell id="dSd74z64RQHbui0JVuST-28" value="customer info" style="text;html=1;align=center;verticalAlign=middle;resizable=0;points=[];autosize=1;strokeColor=none;fillColor=none;" vertex="1" parent="1">
          <mxGeometry x="300" y="270" width="100" height="30" as="geometry" />
        </mxCell>
        <mxCell id="dSd74z64RQHbui0JVuST-29" value="product category" style="text;html=1;align=center;verticalAlign=middle;resizable=0;points=[];autosize=1;strokeColor=none;fillColor=none;" vertex="1" parent="1">
          <mxGeometry x="605" y="77.5" width="110" height="30" as="geometry" />
        </mxCell>
        <mxCell id="dSd74z64RQHbui0JVuST-30" value="extra customer information (birthdate)" style="text;html=1;align=center;verticalAlign=middle;resizable=0;points=[];autosize=1;strokeColor=none;fillColor=none;" vertex="1" parent="1">
          <mxGeometry x="550" y="200" width="220" height="30" as="geometry" />
        </mxCell>
        <mxCell id="dSd74z64RQHbui0JVuST-31" value="location of cutomers (country)" style="text;html=1;align=center;verticalAlign=middle;resizable=0;points=[];autosize=1;strokeColor=none;fillColor=none;" vertex="1" parent="1">
          <mxGeometry x="570" y="320" width="180" height="30" as="geometry" />
        </mxCell>
        <mxCell id="dSd74z64RQHbui0JVuST-34" value="&lt;font style=&quot;font-size: 24px;&quot;&gt;CRM&lt;/font&gt;" style="text;html=1;align=center;verticalAlign=middle;resizable=0;points=[];autosize=1;strokeColor=#6c8ebf;fillColor=#dae8fc;" vertex="1" parent="1">
          <mxGeometry x="215" y="20" width="80" height="40" as="geometry" />
        </mxCell>
        <mxCell id="dSd74z64RQHbui0JVuST-35" value="&lt;span style=&quot;font-size: 24px;&quot;&gt;ERP&lt;/span&gt;" style="text;html=1;align=center;verticalAlign=middle;resizable=0;points=[];autosize=1;strokeColor=#9673a6;fillColor=#e1d5e7;" vertex="1" parent="1">
          <mxGeometry x="610" y="20" width="70" height="40" as="geometry" />
        </mxCell>
        <mxCell id="dSd74z64RQHbui0JVuST-37" style="edgeStyle=orthogonalEdgeStyle;rounded=0;orthogonalLoop=1;jettySize=auto;html=1;entryX=0;entryY=0.5;entryDx=0;entryDy=0;" edge="1" parent="1" source="dSd74z64RQHbui0JVuST-2" target="dSd74z64RQHbui0JVuST-10">
          <mxGeometry relative="1" as="geometry" />
        </mxCell>
        <mxCell id="dSd74z64RQHbui0JVuST-38" style="edgeStyle=orthogonalEdgeStyle;rounded=0;orthogonalLoop=1;jettySize=auto;html=1;entryX=0;entryY=0.5;entryDx=0;entryDy=0;" edge="1" parent="1" source="dSd74z64RQHbui0JVuST-3" target="dSd74z64RQHbui0JVuST-14">
          <mxGeometry relative="1" as="geometry" />
        </mxCell>
        <mxCell id="dSd74z64RQHbui0JVuST-39" style="edgeStyle=orthogonalEdgeStyle;rounded=0;orthogonalLoop=1;jettySize=auto;html=1;entryX=0;entryY=0.5;entryDx=0;entryDy=0;endArrow=none;startFill=0;" edge="1" parent="1" source="dSd74z64RQHbui0JVuST-10" target="dSd74z64RQHbui0JVuST-16">
          <mxGeometry relative="1" as="geometry" />
        </mxCell>
        <mxCell id="dSd74z64RQHbui0JVuST-40" style="edgeStyle=orthogonalEdgeStyle;rounded=0;orthogonalLoop=1;jettySize=auto;html=1;entryX=0;entryY=0.5;entryDx=0;entryDy=0;" edge="1" parent="1" source="dSd74z64RQHbui0JVuST-25" target="dSd74z64RQHbui0JVuST-19">
          <mxGeometry relative="1" as="geometry" />
        </mxCell>
        <mxCell id="dSd74z64RQHbui0JVuST-41" style="edgeStyle=orthogonalEdgeStyle;rounded=0;orthogonalLoop=1;jettySize=auto;html=1;entryX=0;entryY=0.5;entryDx=0;entryDy=0;" edge="1" parent="1" source="dSd74z64RQHbui0JVuST-25" target="dSd74z64RQHbui0JVuST-22">
          <mxGeometry relative="1" as="geometry" />
        </mxCell>
      </root>
    </mxGraphModel>
  </diagram>
</mxfile>
